<?xml version="1.0" encoding="UTF-8" standalone="no"?>
<!DOCTYPE svg PUBLIC "-//W3C//DTD SVG 1.1//EN" "http://www.w3.org/Graphics/SVG/1.1/DTD/svg11.dtd">
<svg width="100%" height="100%" viewBox="0 0 485 102" version="1.1" xmlns="http://www.w3.org/2000/svg" xmlns:xlink="http://www.w3.org/1999/xlink" xml:space="preserve" xmlns:serif="http://www.serif.com/" style="fill-rule:evenodd;clip-rule:evenodd;stroke-linejoin:round;stroke-miterlimit:2;">
    <g transform="matrix(1,0,0,1,93.5385,33.4102)">
        <g transform="matrix(72,0,0,72,16.1755,45.2598)">
            <path d="M0.295,-0.57C0.298,-0.57 0.307,-0.565 0.32,-0.555C0.333,-0.544 0.347,-0.53 0.36,-0.512C0.373,-0.493 0.38,-0.475 0.38,-0.458L0.38,-0.29C0.38,-0.278 0.362,-0.263 0.327,-0.246C0.292,-0.229 0.258,-0.215 0.225,-0.204C0.192,-0.193 0.174,-0.187 0.171,-0.187C0.171,-0.136 0.193,-0.104 0.238,-0.092C0.26,-0.087 0.286,-0.084 0.317,-0.084L0.317,-0.055C0.208,-0.018 0.149,0 0.142,0C0.122,0 0.102,-0.014 0.081,-0.043C0.06,-0.071 0.05,-0.104 0.05,-0.142L0.05,-0.478C0.05,-0.483 0.088,-0.499 0.164,-0.528C0.24,-0.556 0.284,-0.57 0.295,-0.57ZM0.17,-0.463L0.17,-0.232C0.23,-0.249 0.26,-0.285 0.26,-0.34L0.26,-0.411C0.26,-0.43 0.256,-0.446 0.247,-0.459C0.238,-0.472 0.227,-0.478 0.214,-0.478C0.201,-0.478 0.186,-0.473 0.17,-0.463Z" style="fill-rule:nonzero;"/>
        </g>
        <g transform="matrix(72,0,0,72,46.7755,45.2598)">
            <path d="M0.381,-0.433L0.381,-0.093C0.381,-0.087 0.345,-0.07 0.274,-0.042C0.203,-0.014 0.157,0 0.136,0C0.115,0 0.096,-0.016 0.078,-0.047C0.059,-0.078 0.05,-0.106 0.05,-0.13L0.05,-0.423C0.05,-0.46 0.034,-0.481 0.001,-0.488L0.001,-0.51L0.11,-0.571C0.125,-0.565 0.138,-0.556 0.15,-0.543C0.161,-0.53 0.168,-0.519 0.17,-0.509L0.292,-0.57C0.312,-0.57 0.332,-0.556 0.352,-0.527C0.371,-0.498 0.381,-0.467 0.381,-0.433ZM0.26,-0.09L0.26,-0.373C0.26,-0.416 0.254,-0.443 0.241,-0.456C0.228,-0.469 0.205,-0.475 0.17,-0.475L0.17,-0.134C0.17,-0.117 0.175,-0.103 0.184,-0.092C0.193,-0.081 0.203,-0.075 0.214,-0.075C0.225,-0.075 0.24,-0.08 0.26,-0.09Z" style="fill-rule:nonzero;"/>
        </g>
        <g transform="matrix(72,0,0,72,77.7355,45.2598)">
            <path d="M0.295,-0.57C0.298,-0.57 0.307,-0.565 0.32,-0.555C0.333,-0.544 0.347,-0.53 0.36,-0.512C0.373,-0.493 0.38,-0.475 0.38,-0.458L0.38,-0.29C0.38,-0.278 0.362,-0.263 0.327,-0.246C0.292,-0.229 0.258,-0.215 0.225,-0.204C0.192,-0.193 0.174,-0.187 0.171,-0.187C0.171,-0.136 0.193,-0.104 0.238,-0.092C0.26,-0.087 0.286,-0.084 0.317,-0.084L0.317,-0.055C0.208,-0.018 0.149,0 0.142,0C0.122,0 0.102,-0.014 0.081,-0.043C0.06,-0.071 0.05,-0.104 0.05,-0.142L0.05,-0.478C0.05,-0.483 0.088,-0.499 0.164,-0.528C0.24,-0.556 0.284,-0.57 0.295,-0.57ZM0.17,-0.463L0.17,-0.232C0.23,-0.249 0.26,-0.285 0.26,-0.34L0.26,-0.411C0.26,-0.43 0.256,-0.446 0.247,-0.459C0.238,-0.472 0.227,-0.478 0.214,-0.478C0.201,-0.478 0.186,-0.473 0.17,-0.463Z" style="fill-rule:nonzero;"/>
        </g>
        <g transform="matrix(72,0,0,72,108.335,45.2598)">
            <path d="M0.05,-0.068L0.05,-0.407C0.05,-0.429 0.045,-0.448 0.036,-0.464C0.027,-0.48 0.015,-0.488 0.001,-0.488L0.001,-0.51C0.006,-0.511 0.042,-0.531 0.11,-0.571C0.115,-0.57 0.12,-0.568 0.127,-0.566C0.134,-0.563 0.142,-0.557 0.154,-0.546C0.165,-0.535 0.17,-0.523 0.17,-0.509C0.174,-0.511 0.185,-0.517 0.204,-0.528C0.253,-0.556 0.283,-0.57 0.292,-0.57C0.313,-0.57 0.333,-0.556 0.352,-0.528C0.371,-0.5 0.38,-0.474 0.38,-0.451L0.38,-0.148C0.38,-0.111 0.396,-0.09 0.429,-0.083L0.429,-0.061L0.32,0C0.305,-0.006 0.292,-0.016 0.279,-0.03C0.266,-0.043 0.26,-0.056 0.26,-0.068L0.26,-0.358C0.26,-0.395 0.256,-0.424 0.248,-0.444C0.239,-0.463 0.224,-0.473 0.203,-0.473L0.17,-0.467L0.17,-0.148C0.17,-0.107 0.184,-0.084 0.211,-0.079L0.211,-0.057L0.11,0C0.095,-0.006 0.082,-0.016 0.069,-0.03C0.056,-0.043 0.05,-0.056 0.05,-0.068Z" style="fill-rule:nonzero;"/>
        </g>
        <g transform="matrix(72,0,0,72,139.295,45.2598)">
            <path d="M0.17,-0.674L0.17,-0.555L0.221,-0.555L0.211,-0.506L0.17,-0.506L0.17,-0.148C0.17,-0.107 0.184,-0.084 0.211,-0.079L0.211,-0.057L0.11,0C0.095,-0.006 0.082,-0.016 0.069,-0.03C0.056,-0.043 0.05,-0.056 0.05,-0.068L0.05,-0.505L0.009,-0.505L0.019,-0.547C0.039,-0.547 0.063,-0.561 0.092,-0.588C0.12,-0.615 0.137,-0.643 0.142,-0.674L0.17,-0.674Z" style="fill-rule:nonzero;"/>
        </g>
        <g transform="matrix(72,0,0,72,155.135,45.2598)">
            <path d="M0.238,-0.77C0.256,-0.77 0.284,-0.726 0.323,-0.639C0.362,-0.552 0.381,-0.491 0.381,-0.458L0.381,-0.153C0.381,-0.138 0.385,-0.123 0.394,-0.108C0.402,-0.093 0.414,-0.085 0.429,-0.083L0.429,-0.061C0.424,-0.06 0.388,-0.04 0.32,0C0.305,-0.007 0.291,-0.017 0.279,-0.03C0.266,-0.043 0.26,-0.055 0.26,-0.066C0.189,-0.022 0.147,0 0.135,0C0.13,0 0.122,-0.005 0.109,-0.016C0.095,-0.026 0.083,-0.041 0.07,-0.061C0.057,-0.08 0.05,-0.1 0.05,-0.121L0.05,-0.478C0.05,-0.485 0.106,-0.508 0.219,-0.547C0.195,-0.6 0.176,-0.637 0.161,-0.658C0.146,-0.679 0.132,-0.69 0.118,-0.69L0.085,-0.69L0.085,-0.72C0.159,-0.753 0.21,-0.77 0.238,-0.77ZM0.221,-0.092C0.234,-0.092 0.247,-0.097 0.26,-0.108L0.26,-0.456C0.26,-0.46 0.257,-0.468 0.252,-0.482C0.246,-0.495 0.242,-0.501 0.239,-0.501C0.22,-0.501 0.2,-0.495 0.18,-0.483L0.17,-0.477L0.17,-0.166C0.17,-0.117 0.187,-0.092 0.221,-0.092Z" style="fill-rule:nonzero;"/>
        </g>
        <g transform="matrix(72,0,0,72,186.095,45.2598)">
            <path d="M0.295,-0.57C0.298,-0.57 0.307,-0.565 0.32,-0.555C0.333,-0.544 0.347,-0.53 0.36,-0.512C0.373,-0.493 0.38,-0.475 0.38,-0.458L0.38,-0.29C0.38,-0.278 0.362,-0.263 0.327,-0.246C0.292,-0.229 0.258,-0.215 0.225,-0.204C0.192,-0.193 0.174,-0.187 0.171,-0.187C0.171,-0.136 0.193,-0.104 0.238,-0.092C0.26,-0.087 0.286,-0.084 0.317,-0.084L0.317,-0.055C0.208,-0.018 0.149,0 0.142,0C0.122,0 0.102,-0.014 0.081,-0.043C0.06,-0.071 0.05,-0.104 0.05,-0.142L0.05,-0.478C0.05,-0.483 0.088,-0.499 0.164,-0.528C0.24,-0.556 0.284,-0.57 0.295,-0.57ZM0.17,-0.463L0.17,-0.232C0.23,-0.249 0.26,-0.285 0.26,-0.34L0.26,-0.411C0.26,-0.43 0.256,-0.446 0.247,-0.459C0.238,-0.472 0.227,-0.478 0.214,-0.478C0.201,-0.478 0.186,-0.473 0.17,-0.463Z" style="fill-rule:nonzero;"/>
        </g>
        <g transform="matrix(72,0,0,72,216.695,45.2598)">
            <path d="M0.188,-0.473C0.181,-0.473 0.175,-0.47 0.17,-0.463L0.17,-0.187C0.17,-0.136 0.192,-0.104 0.236,-0.092C0.259,-0.087 0.286,-0.084 0.317,-0.084L0.317,-0.055C0.208,-0.018 0.149,0 0.142,0C0.122,0 0.102,-0.014 0.081,-0.043C0.06,-0.071 0.05,-0.104 0.05,-0.142L0.05,-0.478C0.05,-0.483 0.088,-0.499 0.165,-0.528C0.241,-0.556 0.285,-0.57 0.296,-0.57C0.3,-0.57 0.305,-0.56 0.31,-0.541C0.315,-0.522 0.322,-0.498 0.329,-0.471C0.335,-0.444 0.343,-0.424 0.351,-0.411C0.358,-0.398 0.373,-0.391 0.394,-0.391L0.394,-0.371C0.379,-0.364 0.355,-0.353 0.32,-0.336C0.285,-0.319 0.266,-0.31 0.263,-0.31C0.253,-0.31 0.24,-0.337 0.225,-0.392C0.21,-0.446 0.197,-0.473 0.188,-0.473Z" style="fill-rule:nonzero;"/>
        </g>
        <g transform="matrix(72,0,0,72,245.783,45.2598)">
            <path d="M0.17,-0.148C0.17,-0.107 0.184,-0.084 0.211,-0.079L0.211,-0.057L0.11,0C0.095,-0.006 0.082,-0.016 0.069,-0.03C0.056,-0.043 0.05,-0.056 0.05,-0.068L0.05,-0.563C0.05,-0.581 0.047,-0.594 0.041,-0.602C0.035,-0.609 0.025,-0.613 0.01,-0.613L0.01,-0.641C0.097,-0.686 0.174,-0.729 0.242,-0.769L0.258,-0.737C0.251,-0.734 0.242,-0.727 0.23,-0.718C0.218,-0.708 0.208,-0.698 0.2,-0.688C0.18,-0.663 0.17,-0.634 0.17,-0.602L0.17,-0.51C0.232,-0.55 0.269,-0.57 0.28,-0.57C0.299,-0.57 0.319,-0.558 0.342,-0.534C0.365,-0.509 0.376,-0.482 0.376,-0.452L0.376,-0.343C0.376,-0.336 0.341,-0.319 0.272,-0.292C0.314,-0.181 0.355,-0.117 0.395,-0.1C0.408,-0.094 0.422,-0.09 0.437,-0.089L0.437,-0.06C0.375,-0.02 0.336,0 0.32,0C0.299,0 0.272,-0.033 0.239,-0.098C0.206,-0.163 0.183,-0.217 0.17,-0.26L0.17,-0.148ZM0.17,-0.309C0.183,-0.309 0.207,-0.317 0.242,-0.334L0.26,-0.343L0.26,-0.388C0.26,-0.445 0.241,-0.473 0.202,-0.473L0.17,-0.468L0.17,-0.309Z" style="fill-rule:nonzero;"/>
        </g>
    </g>
</svg>
